<svg xmlns="http://www.w3.org/2000/svg" viewBox="0 0 1000 300" width="1000" height="300">
  <defs>
    <linearGradient id="bgrad1" x1="0" y1="0" x2="0" y2="1">
      <stop offset="0%" stop-color="#4e54c8" />
      <stop offset="100%" stop-color="#8f94fb" />
    </linearGradient>
    <linearGradient id="bgrad2" x1="0" y1="0" x2="0" y2="1">
      <stop offset="0%" stop-color="#2c3e50" />
      <stop offset="100%" stop-color="#3498db" />
    </linearGradient>
    <linearGradient id="windowGrad" x1="0" y1="0" x2="0" y2="1">
      <stop offset="0%" stop-color="#f1c40f" stop-opacity="0.8"/>
      <stop offset="100%" stop-color="#f39c12" stop-opacity="0.2"/>
    </linearGradient>
  </defs>

  <!-- Far background buildings -->
  <g fill="url(#bgrad2)" opacity="0.6">
    <rect x="0" y="150" width="60" height="150" rx="4"/>
    <rect x="50" y="180" width="80" height="120" rx="4"/>
    <polygon points="120,200 150,130 180,200 180,300 120,300" />
    <rect x="170" y="100" width="50" height="200" rx="4"/>
    <rect x="230" y="160" width="70" height="140" rx="4"/>
    <polygon points="300,180 340,90 380,180 380,300 300,300" />
    <rect x="370" y="120" width="60" height="180" rx="4"/>
    <rect x="440" y="170" width="90" height="130" rx="4"/>
    <rect x="520" y="110" width="45" height="190" rx="4"/>
    <polygon points="560,190 600,100 640,190 640,300 560,300" />
    <rect x="630" y="140" width="70" height="160" rx="4"/>
    <rect x="710" y="190" width="80" height="110" rx="4"/>
    <rect x="780" y="80" width="50" height="220" rx="4"/>
    <polygon points="820,200 860,120 900,200 900,300 820,300" />
    <rect x="880" y="160" width="70" height="140" rx="4"/>
    <rect x="940" y="130" width="60" height="170" rx="4"/>
  </g>

  <!-- Midground buildings -->
  <g fill="url(#bgrad1)">
    <rect x="-10" y="200" width="70" height="100" rx="2"/>
    <rect x="10" y="210" width="10" height="10" fill="url(#windowGrad)"/>
    <rect x="30" y="210" width="10" height="10" fill="url(#windowGrad)"/>
    <rect x="50" y="210" width="10" height="10" fill="url(#windowGrad)"/>
    
    <rect x="55" y="140" width="55" height="160" rx="2"/>
    <rect x="65" y="150" width="15" height="20" fill="url(#windowGrad)"/>
    <rect x="85" y="150" width="15" height="20" fill="url(#windowGrad)"/>
    <rect x="65" y="180" width="15" height="20" fill="url(#windowGrad)"/>
    <rect x="85" y="180" width="15" height="20" fill="url(#windowGrad)"/>

    <path d="M 105 300 L 105 180 L 135 160 L 165 180 L 165 300 Z" />
    <circle cx="135" cy="180" r="8" fill="#f1c40f" opacity="0.8"/>

    <rect x="160" y="110" width="65" height="190" rx="2"/>
    <rect x="170" y="120" width="45" height="10" fill="url(#windowGrad)"/>
    <rect x="170" y="140" width="45" height="10" fill="url(#windowGrad)"/>
    <rect x="170" y="160" width="45" height="10" fill="url(#windowGrad)"/>

    <rect x="220" y="220" width="80" height="80" rx="2"/>
    <rect x="230" y="230" width="10" height="20" fill="url(#windowGrad)"/>
    <rect x="250" y="230" width="10" height="20" fill="url(#windowGrad)"/>

    <rect x="295" y="150" width="60" height="150" rx="2"/>
    <rect x="305" y="160" width="10" height="10" fill="url(#windowGrad)"/>
    <rect x="325" y="160" width="10" height="10" fill="url(#windowGrad)"/>
    <rect x="305" y="180" width="10" height="10" fill="url(#windowGrad)"/>
    <rect x="325" y="180" width="10" height="10" fill="url(#windowGrad)"/>

    <path d="M 350 300 L 350 130 L 380 100 L 410 130 L 410 300 Z" />
    <circle cx="380" cy="130" r="10" fill="#f1c40f" opacity="0.8"/>

    <rect x="405" y="180" width="75" height="120" rx="2"/>
    <rect x="415" y="190" width="15" height="15" fill="url(#windowGrad)"/>
    <rect x="440" y="190" width="15" height="15" fill="url(#windowGrad)"/>
    <rect x="415" y="215" width="15" height="15" fill="url(#windowGrad)"/>

    <rect x="475" y="90" width="50" height="210" rx="2"/>
    <rect x="485" y="100" width="10" height="30" fill="url(#windowGrad)"/>
    <rect x="505" y="100" width="10" height="30" fill="url(#windowGrad)"/>
    <rect x="485" y="140" width="10" height="30" fill="url(#windowGrad)"/>

    <rect x="520" y="160" width="65" height="140" rx="2"/>
    <rect x="530" y="170" width="45" height="8" fill="url(#windowGrad)"/>
    <rect x="530" y="190" width="45" height="8" fill="url(#windowGrad)"/>

    <path d="M 580 300 L 580 200 L 620 170 L 660 200 L 660 300 Z" />
    <circle cx="620" cy="200" r="12" fill="#f1c40f" opacity="0.8"/>

    <rect x="655" y="130" width="70" height="170" rx="2"/>
    <rect x="665" y="140" width="15" height="15" fill="url(#windowGrad)"/>
    <rect x="695" y="140" width="15" height="15" fill="url(#windowGrad)"/>
    <rect x="665" y="165" width="15" height="15" fill="url(#windowGrad)"/>

    <rect x="720" y="210" width="85" height="90" rx="2"/>
    <rect x="730" y="220" width="10" height="10" fill="url(#windowGrad)"/>
    <rect x="750" y="220" width="10" height="10" fill="url(#windowGrad)"/>
    <rect x="770" y="220" width="10" height="10" fill="url(#windowGrad)"/>

    <rect x="800" y="120" width="60" height="180" rx="2"/>
    <rect x="810" y="130" width="10" height="20" fill="url(#windowGrad)"/>
    <rect x="830" y="130" width="10" height="20" fill="url(#windowGrad)"/>
    <rect x="810" y="160" width="10" height="20" fill="url(#windowGrad)"/>

    <path d="M 855 300 L 855 150 L 895 110 L 935 150 L 935 300 Z" />
    <circle cx="895" cy="150" r="10" fill="#f1c40f" opacity="0.8"/>

    <rect x="930" y="190" width="80" height="110" rx="2"/>
    <rect x="940" y="200" width="10" height="10" fill="url(#windowGrad)"/>
    <rect x="960" y="200" width="10" height="10" fill="url(#windowGrad)"/>
    <rect x="980" y="200" width="10" height="10" fill="url(#windowGrad)"/>
  </g>
</svg>
